HIERARCHY
ROOT Hips
{
	OFFSET 0.00000 0.00000 0.00000
	CHANNELS 6 Xposition Yposition Zposition Zrotation Yrotation Xrotation 
	JOINT LHipJoint
	{
		OFFSET 0 0 0
		CHANNELS 3 Zrotation Yrotation Xrotation
		JOINT LeftUpLeg
		{
			OFFSET 1.38615 -1.80049 0.80104
			CHANNELS 3 Zrotation Yrotation Xrotation
			JOINT LeftLeg
			{
				OFFSET 2.50172 -6.87341 0.00000
				CHANNELS 3 Zrotation Yrotation Xrotation
				JOINT LeftFoot
				{
					OFFSET 2.67523 -7.35014 0.00000
					CHANNELS 3 Zrotation Yrotation Xrotation
					JOINT LeftToeBase
					{
						OFFSET 0.17446 -0.47932 2.13155
						CHANNELS 3 Zrotation Yrotation Xrotation
						End Site
						{
							OFFSET 0.00000 -0.00000 1.10023
						}
					}
				}
			}
		}
	}
	JOINT RHipJoint
	{
		OFFSET 0 0 0
		CHANNELS 3 Zrotation Yrotation Xrotation
		JOINT RightUpLeg
		{
			OFFSET -1.18047 -1.80049 0.80104
			CHANNELS 3 Zrotation Yrotation Xrotation
			JOINT RightLeg
			{
				OFFSET -2.59789 -7.13765 0.00000
				CHANNELS 3 Zrotation Yrotation Xrotation
				JOINT RightFoot
				{
					OFFSET -2.62125 -7.20183 0.00000
					CHANNELS 3 Zrotation Yrotation Xrotation
					JOINT RightToeBase
					{
						OFFSET -0.31287 -0.85960 2.07814
						CHANNELS 3 Zrotation Yrotation Xrotation
						End Site
						{
							OFFSET -0.00000 -0.00000 1.11766
						}
					}
				}
			}
		}
	}
	JOINT LowerBack
	{
		OFFSET 0 0 0
		CHANNELS 3 Zrotation Yrotation Xrotation
		JOINT Spine
		{
			OFFSET -0.01587 2.16157 -0.12309
			CHANNELS 3 Zrotation Yrotation Xrotation
			JOINT Spine1
			{
				OFFSET 0.04727 2.16674 -0.03569
				CHANNELS 3 Zrotation Yrotation Xrotation
				JOINT Neck
				{
					OFFSET 0 0 0
					CHANNELS 3 Zrotation Yrotation Xrotation
					JOINT Neck1
					{
						OFFSET -0.08586 1.60335 0.32783
						CHANNELS 3 Zrotation Yrotation Xrotation
						JOINT Head
						{
							OFFSET 0.07583 1.65857 -0.31618
							CHANNELS 3 Zrotation Yrotation Xrotation
							End Site
							{
								OFFSET 0.03386 1.69434 -0.14584
							}
						}
					}
				}
				JOINT LeftShoulder
				{
					OFFSET 0 0 0
					CHANNELS 3 Zrotation Yrotation Xrotation
					JOINT LeftArm
					{
						OFFSET 3.17393 1.01901 -0.52897
						CHANNELS 3 Zrotation Yrotation Xrotation
						JOINT LeftForeArm
						{
							OFFSET 5.25287 -0.00000 -0.00000
							CHANNELS 3 Zrotation Yrotation Xrotation
							JOINT LeftHand
							{
								OFFSET 3.51014 -0.00000 0.00000
								CHANNELS 3 Zrotation Yrotation Xrotation
								JOINT LeftFingerBase
								{
									OFFSET 0 0 0
									CHANNELS 3 Zrotation Yrotation Xrotation
									JOINT LeftHandIndex1
									{
										OFFSET 0.70618 -0.00000 -0.00000
										CHANNELS 3 Zrotation Yrotation Xrotation
										End Site
										{
											OFFSET 0.56934 -0.00000 -0.00000
										}
									}
								}
								JOINT LThumb
								{
									OFFSET 0 0 0
									CHANNELS 3 Zrotation Yrotation Xrotation
									End Site
									{
										OFFSET 0.57803 -0.00000 0.57803
									}
								}
							}
						}
					}
				}
				JOINT RightShoulder
				{
					OFFSET 0 0 0
					CHANNELS 3 Zrotation Yrotation Xrotation
					JOINT RightArm
					{
						OFFSET -2.99471 1.26495 -0.61125
						CHANNELS 3 Zrotation Yrotation Xrotation
						JOINT RightForeArm
						{
							OFFSET -5.28721 -0.00000 -0.00000
							CHANNELS 3 Zrotation Yrotation Xrotation
							JOINT RightHand
							{
								OFFSET -3.50544 -0.00000 0.00000
								CHANNELS 3 Zrotation Yrotation Xrotation
								JOINT RightFingerBase
								{
									OFFSET 0 0 0
									CHANNELS 3 Zrotation Yrotation Xrotation
									JOINT RightHandIndex1
									{
										OFFSET -0.88500 -0.00000 -0.00000
										CHANNELS 3 Zrotation Yrotation Xrotation
										End Site
										{
											OFFSET -0.71351 -0.00000 -0.00000
										}
									}
								}
								JOINT RThumb
								{
									OFFSET 0 0 0
									CHANNELS 3 Zrotation Yrotation Xrotation
									End Site
									{
										OFFSET -0.72440 -0.00000 0.72440
									}
								}
							}
						}
					}
				}
			}
		}
	}
}
MOTION
Frames: 5
Frame Time: .0083333
-7.6754 18.0649 6.5991 -4.6780 16.0439 3.0662 0.0000 0.0000 0.0000 -8.9627 -12.6468 -26.3118 2.5140 9.8634 28.5354 0.1597 -4.5190 -7.3101 0.2696 -3.3402 -9.2275 0.0000 0.0000 0.0000 29.1013 -2.7928 -4.2364 -1.3455 -7.3438 20.7380 -1.5306 -2.2120 -24.2614 -0.2983 3.5121 -9.7080 2.6340 5.0304 1.1808 3.3918 6.7276 1.2093 1.9593 3.3747 0.4769 0.1481 12.9671 -17.8457 -5.0442 19.2241 19.3879 0.8790 8.4391 9.5777 -0.0000 -0.0000 0.0000 -93.4671 -2.1663 8.5879 13.4921 -22.0040 -2.6348 -0.0000 -0.0000 13.1651 3.3589 38.2402 2.0805 -7.1250 0.0000 -0.0000 -39.2133 64.0153 -19.5050 -0.0000 -0.0000 0.0000 79.6993 9.1710 7.5175 -17.4355 27.4283 -4.2860 0.0000 -0.0000 -3.0924 -21.1944 11.1034 -4.2707 7.1250 -0.0000 -0.0000 4.1541 -18.1114 2.6639
-7.6492 18.0652 6.7343 -4.3784 15.6319 3.3064 0.0000 0.0000 0.0000 -9.5607 -12.0910 -26.3189 2.0623 8.9946 25.7785 0.1305 -4.5870 -6.7245 0.4649 -4.3733 -12.1292 0.0000 0.0000 0.0000 28.7881 -2.8379 -3.7660 -1.3136 -7.2596 20.4868 -1.5346 -2.1846 -24.2800 -0.3179 3.6245 -10.0225 2.3769 5.1222 1.2069 3.2313 6.8531 1.0997 1.9251 3.4352 0.3374 0.1077 12.9900 -17.8658 -5.3285 19.3017 19.0824 0.7955 8.4551 9.5054 -0.0000 -0.0000 0.0000 -93.5222 -2.0684 7.7468 13.4118 -21.8876 -2.6048 -0.0000 -0.0000 13.6360 3.1055 38.4007 1.9301 -7.1250 0.0000 -0.0000 -39.6797 64.0682 -19.8216 -0.0000 -0.0000 0.0000 79.6536 9.4355 8.4756 -17.7956 27.8947 -4.4532 0.0000 -0.0000 -3.7056 -21.5239 10.6970 -4.1869 7.1250 -0.0000 -0.0000 3.9104 -18.5168 2.4719
-7.6186 18.0776 6.8740 -3.7186 15.3101 3.6092 0.0000 0.0000 0.0000 -10.5988 -11.6118 -26.1975 1.6637 8.1273 23.1015 0.1006 -4.7298 -6.1043 0.6849 -5.2913 -14.7413 0.0000 0.0000 0.0000 28.0346 -3.1609 -3.3410 -1.2877 -7.1904 20.2806 -1.5420 -1.9410 -24.2322 -0.3316 3.7011 -10.2371 1.7544 5.2102 1.0613 3.0351 6.9612 1.0594 2.0742 3.4864 0.3259 0.3849 13.0311 -17.6208 -5.9070 19.4124 18.9242 0.5731 8.4760 9.5062 -0.0000 -0.0000 0.0000 -93.6160 -2.0078 7.0854 13.2232 -21.6134 -2.5349 -0.0000 -0.0000 13.9520 2.7631 37.9484 1.7000 -7.1250 0.0000 -0.0000 -39.4111 63.6310 -19.2696 -0.0000 -0.0000 0.0000 79.5945 9.8673 8.8065 -18.0046 28.1630 -4.5514 0.0000 -0.0000 -3.9733 -21.7032 10.6833 -4.2199 7.1250 -0.0000 -0.0000 3.7833 -18.5166 2.3912
-7.5828 18.0828 7.0027 -3.3143 15.1222 3.9914 0.0000 0.0000 0.0000 -11.1892 -11.5142 -26.2203 1.3260 7.2924 20.5847 0.0690 -5.0219 -5.4650 0.7110 -5.3891 -15.0216 0.0000 0.0000 0.0000 27.4920 -3.7024 -3.1986 -1.2614 -7.1194 20.0694 -1.5669 -1.3027 -24.1624 -0.3229 3.6526 -10.1014 1.5671 5.2125 0.9136 2.8465 6.9605 0.9559 1.9930 3.4849 0.3031 0.4895 13.0818 -17.3279 -6.1908 19.5084 18.7920 0.4599 8.5140 9.4553 0.0000 -0.0000 0.0000 -93.6423 -1.8797 6.7498 13.0632 -21.3798 -2.4763 -0.0000 -0.0000 13.7585 2.9733 37.5248 1.8121 -7.1250 0.0000 -0.0000 -38.6525 63.3622 -18.6007 0.0000 -0.0000 0.0000 79.5423 10.2834 9.3341 -18.2740 28.5065 -4.6793 0.0000 -0.0000 -4.0814 -21.5897 10.6422 -4.1797 7.1250 -0.0000 -0.0000 3.8624 -18.5697 2.4368
-7.5537 18.0787 7.1302 -3.2598 14.7864 4.3932 0.0000 0.0000 0.0000 -11.5337 -10.7618 -26.6513 1.0476 6.5088 18.2679 0.0346 -5.9599 -5.0837 0.8430 -5.8565 -16.3686 0.0000 0.0000 0.0000 27.3436 -4.0659 -3.1661 -1.2379 -7.0554 19.8797 -1.5880 -0.7111 -24.0983 -0.3411 3.7533 -10.3835 1.5996 5.2257 0.6531 2.7523 6.9718 0.8656 1.9008 3.4906 0.3710 0.3688 13.1898 -17.5388 -6.1892 19.7073 18.8940 0.5238 8.5843 9.5232 0.0000 0.0000 0.0000 -93.6567 -1.6376 6.7537 13.1252 -21.4705 -2.4989 -0.0000 -0.0000 13.1446 3.5407 37.8611 2.1749 -7.1250 0.0000 -0.0000 -38.5294 63.7739 -18.8994 0.0000 0.0000 0.0000 79.5096 10.6216 10.2387 -18.7436 29.0988 -4.9055 0.0000 -0.0000 -4.2893 -21.4531 10.5355 -4.1097 7.1250 -0.0000 -0.0000 3.9560 -18.6946 2.4852
